<?xml version="1.0" encoding="utf-8"?>
<!-- Generator: Adobe Illustrator 24.1.2, SVG Export Plug-In . SVG Version: 6.00 Build 0)  -->
<svg version="1.0" id="Capa_1" xmlns="http://www.w3.org/2000/svg" xmlns:xlink="http://www.w3.org/1999/xlink" x="0px" y="0px"
	 viewBox="0 0 300 300" style="enable-background:new 0 0 300 300;" xml:space="preserve">
<style type="text/css">
	.st0{fill:#FFFFFF;}
</style>
<path class="st0" d="M67.57,182.87c10.24-2.14,20.57-3.9,30.7-6.51c11.7-3.02,19.01-11.08,20.48-23.84
	c1.21-10.44-7.8-19.83-18.06-19.04c-10.51,0.82-11.42,8.18-10.5,17.4c1.36,13.7-5.64,20.5-18.84,19.3
	c-23.8-2.16-37.7-24.45-32.63-52.32c6.22-34.15,38.89-58.51,71.26-51.05c26.56,6.12,52.27,6.17,78.92,0.23
	c40.47-9.02,77.21,26.42,73.1,68.63c-1.8,18.43-16.05,33.28-33.32,34.71c-13.19,1.09-20.11-5.74-18.75-19.53
	c0.92-9.29-0.29-16.56-10.65-17.35c-10.31-0.79-19.42,8.75-18,19.12c1.71,12.51,8.62,20.92,20.57,23.77
	c10.18,2.43,20.47,4.32,33.14,6.96c-3.62,4.38-5.86,8.04-8.91,10.62c-15.74,13.28-31.66,26.34-47.58,39.38
	c-9.42,7.71-17.99-25.54-28.5-26.09c-9.09-0.48-20.14,32.77-28.32,26.08c-15.94-13.02-31.65-26.35-47.69-39.24
	c-3.13-2.51-7.3-3.58-10.99-5.32C64.52,186.82,66.04,184.85,67.57,182.87z"/>
</svg>
