<?xml version="1.0" encoding="utf-8"?>
<!-- Generator: Adobe Illustrator 24.1.2, SVG Export Plug-In . SVG Version: 6.00 Build 0)  -->
<svg version="1.0" id="Capa_1" xmlns="http://www.w3.org/2000/svg" xmlns:xlink="http://www.w3.org/1999/xlink" x="0px" y="0px"
	 viewBox="0 0 300 300" style="enable-background:new 0 0 300 300;" xml:space="preserve">
<style type="text/css">
	.st0{fill:#F6D13B;}
</style>
<path class="st0" d="M104,218.69c37.46-7.7,64.6-34.66,65.11-75.1c0.4-31.47-10.27-59.77-25.63-86.62
	c-5.41-9.46-12.08-18.21-18.12-27.2c12.87,5.18,23.28,13.93,32.32,24.51c0.53-0.24,1.05-0.48,1.58-0.72
	c-1.44-5.65-2.87-11.3-4.4-17.3c17.18,11.36,30.5,25.39,35.4,46.18c5.37-5.9,5.5-12.73,5.43-20.78
	c12.17,16.23,18.31,32.66,16.61,51.58c0.6,0.17,1.2,0.34,1.8,0.51c4.27-7.07,8.54-14.14,12.91-21.37
	c4.39,24.31,6.01,48.33-8.4,70.73c0.39,0.42,0.78,0.84,1.18,1.26c6.78-3.08,13.55-6.16,20.38-9.26c-3,23.61-13.96,42.64-36.17,54.7
	c7.65,7.09,16.44,8.1,27.04,5.8c-16.16,17.74-33.02,32.1-56.65,36.52c-0.04,0.47-0.09,0.93-0.13,1.4c6.11,3,12.22,6,18.47,9.07
	c-14.57,5.79-29.94,8.53-45.63,7.39c-15.54-1.13-30.92-4.12-46.44-5.61c-6.44-0.62-23.9-1.43-30.88-8.79
	c-12.71-12.02-12.45-24.69-3.87-39.66C78.77,217.56,90.43,221.48,104,218.69z"/>
</svg>
