<?xml version="1.0" encoding="utf-8"?>
<!-- Generator: Adobe Illustrator 24.1.2, SVG Export Plug-In . SVG Version: 6.00 Build 0)  -->
<svg version="1.0" id="Capa_1" xmlns="http://www.w3.org/2000/svg" xmlns:xlink="http://www.w3.org/1999/xlink" x="0px" y="0px"
	 viewBox="0 0 500 300" style="enable-background:new 0 0 500 300;" xml:space="preserve">
<style type="text/css">
	.st0{fill:#132D46;}
	.st1{fill:#CAAE95;}
	.st2{font-family:'Lato-Regular';}
	.st3{font-size:19.1762px;}
	.st4{fill:none;stroke:#CAAE95;stroke-width:2;stroke-miterlimit:10;}
</style>
<rect x="-327.85" y="-153.99" class="st0" width="247.37" height="247.91"/>
<g>
	<g>
		<g>
			<path class="st1" d="M297.57,166.87c0.33-0.69,0.69-1.41,1.02-2.1c1.48-2.89,3.12-5.64,5.02-8.3c1.28-1.77,2.72-3.48,4.39-4.92
				c0.98-0.82,2-1.61,3.25-2.03c1.51-0.56,3.02-0.69,4.56-0.13c0.98,0.36,1.71,1.02,2.07,2.03c0.39,0.98,0.49,2,0.46,3.05
				c-0.07,2.59-0.46,5.12-1.12,7.61c-0.46,1.74-1.02,3.41-1.87,4.98c-0.79,1.38-1.74,2.53-3.15,3.31c-0.95,0.49-1.97,0.82-3.05,0.92
				c-1.57,0.16-3.18,0.16-4.72-0.16c-0.82-0.16-1.61-0.39-2.33-0.75c-0.75-0.36-1.38-0.85-1.8-1.57c-0.03-0.03-0.03-0.03-0.07-0.07
				c-0.13,0.03-0.13,0.16-0.2,0.23c-0.62,1.38-1.25,2.76-1.87,4.13c-1.15,2.53-2.26,5.02-4.1,9.97c-0.39,0.79-0.79,1.61-1.31,2.33
				c-0.43,0.62-1.02,0.98-1.74,1.15c-0.52,0.1-1.08,0.1-1.61-0.07c-0.79-0.2-1.18-0.66-1.25-1.44c-0.1-0.75,0-1.44,0.1-2.16
				c0.2-1.74,1.25-5.9,1.64-7.58c0.85-3.54,1.8-7.05,2.92-10.49c0.46-1.38,0.95-2.69,1.44-4.03c0.62-1.67,1.21-3.34,1.8-5.02
				c0.46-1.31,0.98-2.59,1.48-3.9c0.1-0.26,0.2-0.52,0.3-0.82c0.1-0.33,0.33-0.56,0.62-0.72c0.85-0.39,1.74-0.46,2.62-0.13
				c0.59,0.2,0.85,0.62,0.89,1.21c0.03,0.62-0.07,1.25-0.16,1.84c-0.43,2-1.02,3.94-1.67,5.87c-0.82,2.46-1.74,4.92-2.53,7.41
				C297.57,166.64,297.53,166.74,297.57,166.87z M302.09,164.93c0.2-0.03,0.39-0.1,0.59-0.13c0.62-0.1,1.28,0.2,1.54,0.75
				c0.16,0.33,0.23,0.66,0.23,0.98c-0.07,0.66,0.23,1.12,0.75,1.44c0.59,0.36,1.25,0.49,1.9,0.56c0.33,0.03,0.59-0.07,0.85-0.26
				c0.33-0.26,0.66-0.52,0.95-0.85c1.05-1.11,1.71-2.43,2.2-3.87c1.05-3.21,1.61-6.53,1.8-9.87c0.03-0.56,0-1.12-0.1-1.67
				c-0.1-0.56-0.16-0.56-0.66-0.3c-1.25,0.72-2.26,1.67-3.21,2.72c-1.34,1.48-2.53,3.08-3.61,4.72c-1.15,1.74-2.13,3.57-3.12,5.41
				C302.16,164.67,302.09,164.77,302.09,164.93z"/>
			<path class="st1" d="M322.23,172.93c-0.03,0.59,0.07,1.21,0.3,1.84c0.07,0.26,0.2,0.49,0.33,0.72c0.26,0.36,0.56,0.52,1.02,0.46
				c0.82-0.13,1.61-0.43,2.36-0.75c1.74-0.75,3.31-1.71,4.79-2.89c1.41-1.12,2.85-2.2,4.23-3.35c0.33-0.26,0.69-0.49,1.15-0.52
				c0.13-0.03,0.26-0.03,0.39,0c0.3,0.13,0.39,0.36,0.26,0.66c-0.07,0.16-0.2,0.33-0.33,0.46c-0.75,0.75-1.54,1.41-2.36,2.07
				c-2,1.57-4.03,3.08-6.17,4.49c-1.15,0.82-2.43,1.34-3.84,1.61c-1.64,0.33-3.18,0.13-4.62-0.75c-0.95-0.59-1.64-1.41-2.07-2.46
				c-0.3-0.79-0.46-1.61-0.46-2.46c0-0.79,0.1-1.57,0.33-2.33c0.59-2.1,1.61-3.94,3.05-5.54c0.92-1.02,1.97-1.87,3.18-2.53
				c1.05-0.56,2.16-0.92,3.38-1.05c0.92-0.1,1.84-0.07,2.72,0.16c0.69,0.16,1.34,0.36,1.87,0.85c0.62,0.52,1.02,1.18,1.02,2.03
				c0,0.49-0.07,0.92-0.23,1.38c-0.3,1.02-0.75,1.94-1.38,2.76c-1.44,1.87-3.28,2.95-5.61,3.21c-0.95,0.1-1.93,0.16-2.89,0.03
				c-0.2-0.03-0.26,0.07-0.3,0.23C322.3,171.79,322.23,172.31,322.23,172.93z M328.17,163.95c-0.03-0.13-0.07-0.29-0.07-0.43
				c-0.03-0.16-0.13-0.2-0.23-0.13c-0.1,0-0.16,0.03-0.23,0.07c-0.62,0.33-1.18,0.72-1.67,1.18c-0.89,0.85-1.61,1.84-2.2,2.89
				c-0.26,0.46-0.49,0.92-0.66,1.38c-0.1,0.2-0.07,0.26,0.16,0.23c0.26-0.03,0.52-0.1,0.79-0.13c0.72-0.13,1.34-0.43,1.87-0.95
				c0.85-0.82,1.57-1.77,2-2.89C328.07,164.77,328.1,164.37,328.17,163.95z"/>
			<path class="st1" d="M342.04,165.33c0.26-0.33,0.49-0.59,0.72-0.85c0.75-0.92,1.57-1.77,2.46-2.53c0.75-0.66,1.64-0.98,2.66-1.08
				c0.69-0.07,1.34,0,2,0.2c1.21,0.39,1.97,1.25,2.26,2.46c0.29,1.08,0.23,2.13-0.03,3.18c-0.46,1.93-1.08,3.84-2,5.58
				c-0.89,1.64-2,3.12-3.48,4.26c-1.38,1.05-2.95,1.64-4.76,1.54c-0.43-0.03-0.89-0.1-1.31-0.23c-0.39-0.16-0.72-0.33-1.02-0.62
				c-0.26-0.26-0.53-0.52-0.79-0.79c-0.07-0.07-0.1-0.16-0.23-0.16c-0.1,0.1-0.1,0.23-0.16,0.33c-0.46,1.51-0.92,3.02-1.38,4.53
				c-0.66,2.03-1.38,4.07-2.16,6.03c-0.2,0.49-0.46,0.95-0.79,1.38c-0.2,0.26-0.43,0.49-0.75,0.59c-0.82,0.36-1.71,0.36-2.56,0.03
				c-0.56-0.2-0.85-0.59-0.85-1.21c0.03-0.43,0.1-0.89,0.2-1.31c0.36-1.44,0.82-2.89,1.25-4.33c0.62-2.03,1.38-4,2.03-6.03
				c0.72-2.26,1.54-4.49,2.23-6.79c0.72-2.33,1.57-4.62,2.39-6.92c0.1-0.26,0.2-0.53,0.3-0.75c0.13-0.33,0.36-0.56,0.66-0.69
				c1.08-0.52,2.16-0.52,3.25-0.07c0.2,0.07,0.33,0.2,0.49,0.36c0.16,0.2,0.26,0.43,0.2,0.69c-0.07,0.46-0.2,0.89-0.33,1.31
				c-0.16,0.56-0.33,1.08-0.49,1.61C342.04,165.1,342.01,165.16,342.04,165.33z M346.8,164.05c-0.2,0-0.26,0.1-0.33,0.16
				c-1.02,0.85-1.84,1.87-2.52,2.98c-0.92,1.38-1.8,2.79-2.76,4.17c-0.36,0.52-0.72,1.05-1.18,1.51c-0.1,0.07-0.16,0.16-0.03,0.26
				c0.2,0.2,0.26,0.43,0.39,0.62c0.39,0.75,0.92,1.38,1.54,1.9c0.16,0.13,0.26,0.13,0.39,0.03c0.26-0.2,0.49-0.39,0.69-0.62
				c0.85-1.02,1.57-2.16,2.1-3.44c0.85-2.13,1.48-4.36,1.71-6.66C346.8,164.67,346.83,164.37,346.8,164.05z"/>
			<path class="st1" d="M357.91,172.93c-0.03,0.59,0.07,1.21,0.29,1.84c0.07,0.26,0.2,0.49,0.33,0.72c0.26,0.36,0.56,0.52,1.02,0.46
				c0.82-0.13,1.61-0.43,2.36-0.75c1.74-0.75,3.31-1.71,4.79-2.89c1.41-1.12,2.85-2.2,4.23-3.35c0.33-0.26,0.69-0.49,1.15-0.52
				c0.13-0.03,0.26-0.03,0.39,0c0.29,0.13,0.39,0.36,0.26,0.66c-0.07,0.16-0.2,0.33-0.33,0.46c-0.75,0.75-1.54,1.41-2.36,2.07
				c-2,1.57-4.03,3.08-6.17,4.49c-1.15,0.82-2.43,1.34-3.84,1.61c-1.64,0.33-3.18,0.13-4.62-0.75c-0.95-0.59-1.64-1.41-2.07-2.46
				c-0.3-0.79-0.46-1.61-0.46-2.46c0-0.79,0.1-1.57,0.33-2.33c0.59-2.1,1.61-3.94,3.05-5.54c0.92-1.02,1.97-1.87,3.18-2.53
				c1.05-0.56,2.16-0.92,3.38-1.05c0.92-0.1,1.84-0.07,2.72,0.16c0.69,0.16,1.34,0.36,1.87,0.85c0.62,0.52,1.02,1.18,1.02,2.03
				c0,0.49-0.07,0.92-0.23,1.38c-0.3,1.02-0.75,1.94-1.38,2.76c-1.44,1.87-3.28,2.95-5.61,3.21c-0.95,0.1-1.94,0.16-2.89,0.03
				c-0.2-0.03-0.26,0.07-0.29,0.23C357.98,171.79,357.91,172.31,357.91,172.93z M363.85,163.95c-0.03-0.13-0.07-0.29-0.07-0.43
				c-0.03-0.16-0.13-0.2-0.23-0.13c-0.1,0-0.16,0.03-0.23,0.07c-0.62,0.33-1.18,0.72-1.67,1.18c-0.89,0.85-1.61,1.84-2.2,2.89
				c-0.26,0.46-0.49,0.92-0.66,1.38c-0.1,0.2-0.07,0.26,0.16,0.23c0.26-0.03,0.52-0.1,0.79-0.13c0.72-0.13,1.35-0.43,1.87-0.95
				c0.85-0.82,1.57-1.77,2-2.89C363.75,164.77,363.78,164.37,363.85,163.95z"/>
			<path class="st1" d="M379.13,160.8c1.12-0.03,2.2,0.23,3.18,0.85c0.79,0.49,1.28,1.21,1.44,2.13c0.1,0.52,0.1,1.08-0.03,1.64
				c-0.33,1.48-1.15,2.59-2.52,3.28c-0.75,0.36-1.54,0.36-2.33,0.2c-0.23-0.03-0.43-0.13-0.62-0.26c-0.39-0.3-0.46-0.66-0.13-1.02
				c0.26-0.26,0.46-0.56,0.66-0.89c0.33-0.46,0.49-0.98,0.56-1.54c0.1-0.59-0.07-1.15-0.29-1.67c-0.07-0.16-0.16-0.16-0.3-0.1
				c-0.52,0.26-0.95,0.66-1.31,1.12c-0.69,0.89-1.08,1.9-1.25,2.98c-0.23,1.48,0.13,2.85,0.69,4.2c0.36,0.75,0.72,1.51,1.11,2.26
				c0.13,0.33,0.16,0.33,0.49,0.13c2.26-1.28,4.46-2.62,6.72-3.94c0.49-0.29,0.98-0.59,1.48-0.89c0.33-0.2,0.69-0.33,1.08-0.43
				c0.2-0.07,0.43-0.07,0.62-0.03c0.39,0.07,0.52,0.36,0.29,0.69c-0.13,0.2-0.33,0.36-0.52,0.49c-0.82,0.56-1.64,1.05-2.46,1.57
				c-2.03,1.28-4.1,2.43-6.17,3.64c-0.16,0.1-0.33,0.23-0.52,0.33c-0.16,0.1-0.2,0.23-0.1,0.43c0.2,0.46,0.36,0.95,0.52,1.44
				c0.29,0.95,0.43,1.94,0.46,2.95c0.03,2.2-1.44,4.1-3.35,4.82c-1.84,0.69-3.67,0.49-5.41-0.33c-0.75-0.36-1.34-0.95-1.71-1.74
				c-0.36-0.72-0.33-1.44,0.03-2.16c0.36-0.66,0.82-1.18,1.34-1.67c1.02-0.95,2.16-1.74,3.31-2.56c0.26-0.2,0.26-0.2,0.1-0.49
				c-0.59-1.12-1.15-2.3-1.74-3.44c-0.66-1.31-1.08-2.69-1.25-4.13c-0.2-1.51,0.2-2.85,0.95-4.1c1.28-2.07,3.18-3.15,5.44-3.64
				c0.26-0.07,0.49-0.1,0.75-0.13C378.64,160.77,378.87,160.8,379.13,160.8z M375.72,180.71c0.03-0.36,0-0.66-0.07-0.98
				c-0.1-0.43-0.23-0.89-0.43-1.28c-0.03-0.16-0.1-0.2-0.23-0.1c-0.07,0.07-0.13,0.1-0.2,0.13c-0.75,0.59-1.44,1.28-2.1,1.97
				c-0.23,0.23-0.39,0.49-0.52,0.79c-0.1,0.2-0.2,0.39-0.2,0.62c-0.1,0.92,0.72,1.93,1.93,1.93c0.13,0,0.3-0.07,0.39-0.16
				c0.62-0.49,1.18-1.05,1.31-1.9C375.69,181.4,375.75,181.04,375.72,180.71z"/>
		</g>
		<text transform="matrix(1 0 0 1 219.1718 214.0593)" class="st1 st2 st3">Por una esperanza para ellos</text>
	</g>
	<g>
		<path class="st1" d="M158.64,153.69c0-0.2-0.02-0.38-0.03-0.58c-4.4-1.97-9.25-3.6-14.44-4.8c-3.56-0.82-7.07-1.37-10.48-1.69
			c-1.53-0.54-3.16-0.85-4.87-0.85c-8.07,0-14.62,6.54-14.62,14.62c0,4.2,1.79,7.98,4.63,10.65c-1.16,1.23-2.22,2.55-3.18,3.95
			c-1.5-4.96-4.67-9.19-8.86-12.04c-2.87,1.45-5.38,3.49-7.38,5.97c-0.86-0.1-1.73-0.16-2.62-0.16c-0.45,0-0.89,0.02-1.33,0.04
			c-2.82-3.44-6.63-6.04-11-7.33c-4.74,4.11-7.74,10.17-7.74,16.93c0,0.84,0.06,1.66,0.15,2.48c-1.6,3.08-2.5,6.58-2.5,10.29
			c0,12.38,10.04,22.42,22.42,22.42c6.05,0,11.54-2.4,15.57-6.3c0.77,1.81,1.67,3.55,2.73,5.18c4.51-0.74,8.94-2.41,13-5.07
			c12.29-8.06,17.58-22.76,14.27-36.26C151.46,170.51,158.64,162.95,158.64,153.69z"/>
		<path class="st4" d="M185.68,132.38l-30.22-25.52l-37.39-31.58c-1.85-1.56-4.56-1.56-6.41,0l-37.39,31.58l-30.22,25.52
			c-3.54,2.99-1.43,8.77,3.21,8.77h12.08v59.25c-0.73,7.87,1.1,14.78,5.82,19.51c10.4,10.4,31.37,6.82,49.92-7.43
			c18.55,14.25,39.52,17.84,49.92,7.43c4.64-4.64,6.49-11.39,5.86-19.09v-59.67h11.62C187.1,141.14,189.22,135.37,185.68,132.38z"/>
		<path class="st0" d="M158.25,153.24c-0.76,2.16-3.13,3.29-5.29,2.53c-2.16-0.76-3.29-3.13-2.53-5.29"/>
		<path class="st0" d="M117.82,170.36c0,0,16.81,10.78,10.51-17.21"/>
		<path class="st0" d="M135.71,157.86c0,0,1.85-6.02,8.8-3.61"/>
		<g>
			<path class="st0" d="M85.15,182.49c0,0,4.94-3.55,9.08,0"/>
			<path class="st0" d="M99.01,182.49c0,0,4.94-3.55,9.08,0"/>
			<path class="st0" d="M92.5,190.82c0,0,4.25-2.72,8,0C100.5,190.82,97.1,196.35,92.5,190.82z"/>
		</g>
	</g>
</g>
</svg>
