<?xml version="1.0" encoding="utf-8"?>
<!-- Generator: Adobe Illustrator 24.1.2, SVG Export Plug-In . SVG Version: 6.00 Build 0)  -->
<svg version="1.0" id="Capa_1" xmlns="http://www.w3.org/2000/svg" xmlns:xlink="http://www.w3.org/1999/xlink" x="0px" y="0px"
	 viewBox="0 0 300 300" style="enable-background:new 0 0 300 300;" xml:space="preserve">
<style type="text/css">
	.st0{fill:#F6D13B;}
</style>
<path class="st0" d="M196.09,218.69c-37.53-7.7-64.72-34.66-65.23-75.1c-0.4-31.47,10.29-59.77,25.67-86.62
	c5.42-9.46,12.1-18.21,18.16-27.2c-12.9,5.18-23.33,13.93-32.38,24.51c-0.53-0.24-1.05-0.48-1.58-0.72
	c1.44-5.65,2.88-11.3,4.41-17.3c-17.22,11.36-30.55,25.39-35.47,46.18c-5.38-5.9-5.51-12.73-5.44-20.78
	c-12.19,16.23-18.35,32.66-16.64,51.58c-0.6,0.17-1.21,0.34-1.81,0.51c-4.28-7.07-8.56-14.14-12.93-21.37
	c-4.4,24.31-6.03,48.33,8.41,70.73c-0.39,0.42-0.79,0.84-1.18,1.26c-6.79-3.08-13.58-6.16-20.42-9.26
	c3,23.61,13.99,42.64,36.23,54.7c-7.66,7.09-16.47,8.1-27.09,5.8c16.19,17.74,33.09,32.1,56.76,36.52c0.04,0.47,0.09,0.93,0.13,1.4
	c-6.12,3-12.25,6-18.51,9.07c14.6,5.79,29.99,8.53,45.71,7.39c15.57-1.13,30.98-4.12,46.53-5.61c6.45-0.62,23.94-1.43,30.93-8.79
	c12.74-12.02,12.47-24.69,3.88-39.66C221.36,217.56,209.68,221.48,196.09,218.69z"/>
</svg>
