<?xml version="1.0" encoding="utf-8"?>
<!-- Generator: Adobe Illustrator 24.1.2, SVG Export Plug-In . SVG Version: 6.00 Build 0)  -->
<svg version="1.0" id="Capa_1" xmlns="http://www.w3.org/2000/svg" xmlns:xlink="http://www.w3.org/1999/xlink" x="0px" y="0px"
	 viewBox="0 0 300 300" style="enable-background:new 0 0 300 300;" xml:space="preserve">
<style type="text/css">
	.st0{fill:none;stroke:#F6D13B;stroke-width:3;stroke-miterlimit:10;}
	.st1{fill:#F6D13B;}
</style>
<g>
	<path class="st0" d="M281.43,117.29l-56.08-47.36l-69.4-58.61c-3.44-2.9-8.46-2.9-11.9,0l-69.4,58.61l-56.08,47.36
		c-6.57,5.55-2.65,16.27,5.95,16.27h22.41v109.97c-1.36,14.61,2.03,27.43,10.81,36.2c19.31,19.31,58.22,12.66,92.65-13.79
		c34.43,26.45,73.35,33.1,92.65,13.79c8.62-8.62,12.05-21.15,10.87-35.43V133.56h21.57C284.08,133.56,288,122.84,281.43,117.29z"/>
	<path class="st1" d="M231.26,156.85c0-0.36-0.04-0.71-0.05-1.07c-8.16-3.65-17.17-6.69-26.79-8.9c-6.61-1.52-13.12-2.54-19.45-3.13
		c-2.83-1-5.87-1.58-9.04-1.58c-14.98,0-27.13,12.15-27.13,27.13c0,6.96,2.65,13.28,6.96,18.08L175,155.84
		c10.17,45.15-12.06,35.95-18.05,32.77c0.15,0.15,0.29,0.31,0.44,0.45c-2.15,2.28-4.12,4.74-5.9,7.32
		c-2.79-9.2-8.66-17.06-16.45-22.35c-5.32,2.68-9.98,6.49-13.69,11.08c-1.6-0.19-3.22-0.29-4.87-0.29c-0.83,0-1.65,0.03-2.46,0.08
		c-5.23-6.39-12.3-11.21-20.42-13.61c-8.79,7.63-14.36,18.88-14.36,31.43c0,1.56,0.12,3.09,0.28,4.6
		c-2.96,5.72-4.65,12.21-4.65,19.1c0,22.98,18.63,41.61,41.61,41.61c11.23,0,21.41-4.46,28.9-11.69c1.42,3.36,3.1,6.58,5.06,9.61
		c8.37-1.38,16.59-4.47,24.13-9.42c22.81-14.95,32.62-42.24,26.48-67.3C217.93,188.07,231.26,174.03,231.26,156.85z M111.72,210.3
		H94.86C94.86,210.3,104.02,203.71,111.72,210.3z M108.51,225.76c0,0,7.88-5.04,14.84,0C123.35,225.76,117.03,236.02,108.51,225.76z
		 M120.58,210.3c0,0,9.16-6.6,16.86,0H120.58z M188.7,164.58c0,0,3.44-11.18,16.34-6.71L188.7,164.58z M216.02,150.91l14.51,5.11
		c-1.41,4.01-5.8,6.11-9.81,4.7C216.71,159.31,214.61,154.91,216.02,150.91z"/>
</g>
</svg>
