<?xml version="1.0" encoding="utf-8"?>
<!-- Generator: Adobe Illustrator 24.1.2, SVG Export Plug-In . SVG Version: 6.00 Build 0)  -->
<svg version="1.0" id="Capa_1" xmlns="http://www.w3.org/2000/svg" xmlns:xlink="http://www.w3.org/1999/xlink" x="0px" y="0px"
	 viewBox="0 0 300 300" style="enable-background:new 0 0 300 300;" xml:space="preserve">
<style type="text/css">
	.st0{fill:#FFFFFF;}
</style>
<g>
	<path class="st0" d="M147.9,36.78c24.85,0.54,49.45,2.53,73.48,9.2c10.48,2.91,20.68,6.57,29.63,12.96
		c15.68,11.19,15.92,26.76-0.02,37.49c-6.71,4.52-14.61,7.3-22.01,10.78c-0.75,0.35-1.88,0.33-2.69,0.06
		C199.53,98.53,171.9,96.34,144,96.62c-25.14,0.25-50.02,2.7-74.09,10.6c-0.83,0.27-1.91,0.34-2.73,0.07
		c-8.51-2.87-16.74-6.34-23.87-11.96c-1.56-1.23-3.07-2.59-4.4-4.07c-7.56-8.4-7.56-18.59,0.06-27.02
		c5.5-6.08,12.59-9.81,20.01-12.88c16.78-6.95,34.43-10.4,52.38-12.17C123.51,38,135.72,37.56,147.9,36.78z"/>
	<path class="st0" d="M164.69,182.96c0-19.61,0-38.93,0-58.27c7.89-0.72,15.97-1.25,23.99-2.25c20.65-2.55,40.92-6.72,59.79-15.93
		c3.58-1.75,7.02-3.84,10.3-6.11c5.44-3.77,10.01-8.37,12.62-14.85c0.06,0.95,0.16,1.9,0.16,2.86c0.01,16.21-0.18,32.43,0.07,48.64
		c0.12,7.57-2.75,13.46-8.14,18.38c-7.36,6.72-16.15,10.97-25.36,14.42c-19.58,7.34-39.98,10.75-60.7,12.53
		c-3.98,0.34-7.98,0.5-11.97,0.73C165.17,183.13,164.86,182.99,164.69,182.96z"/>
	<path class="st0" d="M28.44,85.2c8.13,16.51,23.45,22.34,38.89,27.7c20.94,7.27,42.74,10.05,64.76,11.39
		c1.13,0.07,2.26,0.14,3.21,0.19c0,19.61,0,38.93,0,58.7c-3.7-0.23-7.65-0.4-11.59-0.73c-21.15-1.74-41.96-5.17-61.94-12.65
		c-8.71-3.26-17.01-7.3-24.15-13.42c-6.06-5.19-9.42-11.45-9.26-19.79c0.31-16.1,0.08-32.21,0.08-48.31
		C28.44,87.4,28.44,86.49,28.44,85.2z"/>
	<path class="st0" d="M152.66,199.32c21.27,6.35,31.36,19.07,28.9,36.13c-2.32,16.04-15.6,27.77-31.43,27.77
		c-15.73-0.01-29.31-11.6-31.52-26.93c-2.61-18.11,6.91-30.41,28.79-36.96c0-3.59,0.11-7.27-0.08-10.93c-0.05-0.88-0.95-2-1.77-2.5
		c-3.16-1.95-4.74-4.71-4.74-8.37c-0.01-15.79-0.04-31.59,0.03-47.38c0.02-5.39,3.96-9.36,9.04-9.44c5.1-0.08,9.26,3.77,9.29,9.14
		c0.12,16,0.06,32.01,0.03,48.02c-0.01,3.57-1.76,6.13-4.73,8.06c-0.8,0.52-1.67,1.63-1.72,2.51
		C152.55,191.99,152.66,195.57,152.66,199.32z M157.12,253.2c3.7,0.07,6.74-1.88,8.05-4.8c1.43-3.21,0.55-6.41-1.81-9.3
		c-1.92-2.36-3.77-5-4.8-7.83c-1.56-4.28-4.4-7.08-8.5-7.11c-4.06-0.03-6.89,2.72-8.44,7.14c-0.94,2.66-2.5,5.28-4.37,7.4
		c-2.91,3.29-3.87,6.88-1.95,10.28c2.01,3.56,5.65,4.61,10.04,3.81c3.09-0.56,6.36-0.15,9.55-0.08
		C155.8,252.74,156.71,253.11,157.12,253.2z M162.25,215.82c0.06-3.35-1.95-6.08-4.57-6.22c-2.92-0.15-5.53,3.01-5.62,6.81
		c-0.08,3.39,1.89,6.07,4.55,6.21C159.54,222.78,162.19,219.59,162.25,215.82z M147.95,216.49c-0.03-3.79-2.59-7-5.52-6.91
		c-2.58,0.09-4.71,2.88-4.68,6.16c0.03,3.66,2.72,7,5.58,6.93C145.91,222.6,147.97,219.85,147.95,216.49z M167.94,220.96
		c-2.88,0.02-5.69,3.37-5.71,6.8c-0.01,2.85,1.77,5,4.12,4.97c2.98-0.04,5.83-3.6,5.72-7.15
		C171.99,222.92,170.22,220.94,167.94,220.96z M128.01,225.88c0.04,3.52,2.75,6.8,5.65,6.83c2.41,0.02,4.12-2.03,4.11-4.94
		c-0.01-3.49-2.76-6.78-5.66-6.81C129.69,220.94,127.97,223.01,128.01,225.88z"/>
</g>
</svg>
